<?xml version="1.0" encoding="utf-8"?>
<!-- Generator: Adobe Illustrator 16.2.0, SVG Export Plug-In . SVG Version: 6.00 Build 0)  -->
<!DOCTYPE svg PUBLIC "-//W3C//DTD SVG 1.1//EN" "http://www.w3.org/Graphics/SVG/1.1/DTD/svg11.dtd">
<svg version="1.1" id="Layer_1" xmlns="http://www.w3.org/2000/svg" xmlns:xlink="http://www.w3.org/1999/xlink" x="0px" y="0px"
	 width="32px" height="32px" viewBox="0 0 32 32" enable-background="new 0 0 32 32" xml:space="preserve">
<g>
	<polygon fill="#68BED5" points="5.399,11.12 5.399,10.815 6.056,10.511 9.036,10.488 9.89,11.064 10.105,11.561 11.391,14.112 
		12.386,15.51 12.937,15.856 13.414,15.661 13.684,14.657 13.661,12.027 13.215,11.095 12.583,10.831 12.506,10.607 13.097,10.181 
		14.006,10.009 15.427,9.967 17.042,10.091 17.751,10.731 17.833,11.484 17.77,14.563 17.904,15.443 18.73,15.658 19.199,15.196 
		21.016,12.236 21.564,10.981 22.199,10.519 23.705,10.517 25.787,10.49 26.602,10.883 26.602,11.187 26.33,11.875 24.859,14.137 
		23.376,16.15 23.498,17.497 25.402,19.413 26.602,21.314 26.602,21.381 25.839,21.959 24.419,21.999 22.645,22.034 21.025,21.284 
		19.841,20.006 18.955,19.262 18.404,19.324 17.91,20.165 17.792,21.236 17.107,21.962 15.72,21.98 12.522,21.098 10.542,19.584 
		8.947,17.575 7.368,15.059 5.941,12.297 	"/>
</g>
</svg>
