<?xml version="1.0" encoding="utf-8"?>
<!-- Generator: Adobe Illustrator 16.2.0, SVG Export Plug-In . SVG Version: 6.00 Build 0)  -->
<!DOCTYPE svg PUBLIC "-//W3C//DTD SVG 1.1//EN" "http://www.w3.org/Graphics/SVG/1.1/DTD/svg11.dtd">
<svg version="1.1" id="Layer_1" xmlns="http://www.w3.org/2000/svg" xmlns:xlink="http://www.w3.org/1999/xlink" x="0px" y="0px"
	 width="32px" height="32px" viewBox="0 0 32 32" enable-background="new 0 0 32 32" xml:space="preserve">
<g>
	<path fill="#68BED5" d="M12.496,12.476c0-0.095,0-0.166,0-0.236c0.002-0.833-0.007-1.667,0.012-2.499
		c0.019-0.806,0.167-1.591,0.521-2.323c0.492-1.011,1.319-1.619,2.383-1.927c0.697-0.203,1.414-0.268,2.14-0.268
		c1.337,0,2.677,0,4.013,0c0.039,0,0.078,0.004,0.142,0.008c0.006,0.064,0.019,0.126,0.019,0.189c0,1.141-0.007,2.281,0.004,3.423
		c0,0.168-0.059,0.208-0.217,0.206c-1.043-0.006-2.087-0.011-3.13,0.002c-0.249,0.003-0.509,0.043-0.747,0.121
		c-0.232,0.076-0.376,0.284-0.42,0.531c-0.033,0.199-0.068,0.401-0.072,0.604c-0.014,0.655-0.002,1.311-0.014,1.967
		c-0.004,0.168,0.055,0.207,0.211,0.206c1.377-0.006,2.754-0.004,4.135-0.003c0.08,0,0.164,0.01,0.268,0.016
		c-0.206,1.184-0.406,2.342-0.611,3.518c-1.336,0-2.658,0-3.999,0c0,3.597,0,7.175,0,10.767c-1.547,0-3.077,0-4.628,0
		c0-3.586,0-7.168,0-10.767c-0.746,0-1.473,0-2.219,0c-0.006-0.076-0.011-0.139-0.011-0.201c-0.002-1.043,0.003-2.086-0.004-3.128
		c-0.002-0.166,0.051-0.211,0.212-0.209C11.138,12.481,11.799,12.476,12.496,12.476z"/>
</g>
</svg>
