<?xml version="1.0" encoding="utf-8"?>
<!-- Generator: Adobe Illustrator 16.2.0, SVG Export Plug-In . SVG Version: 6.00 Build 0)  -->
<!DOCTYPE svg PUBLIC "-//W3C//DTD SVG 1.1//EN" "http://www.w3.org/Graphics/SVG/1.1/DTD/svg11.dtd">
<svg version="1.1" id="Layer_1" xmlns="http://www.w3.org/2000/svg" xmlns:xlink="http://www.w3.org/1999/xlink" x="0px" y="0px"
	 width="32px" height="32px" viewBox="0 0 32 32" enable-background="new 0 0 32 32" xml:space="preserve">
<g>
	<g>
		<path fill="#68BED5" d="M19.863,26.994c-2.576,0-5.15,0-7.726,0c-0.612-0.063-1.225-0.117-1.834-0.191
			c-2.554-0.313-4.515-2.107-5.014-4.635C5.138,21.408,5.094,20.626,5,19.855c0-2.575,0-5.15,0-7.728
			c0.03-0.337,0.078-0.672,0.092-1.009c0.127-3.459,2.522-5.908,5.976-6.025C13.394,5.016,15.723,5,18.049,5.005
			c1.217,0.003,2.441,0.055,3.652,0.186c2.553,0.278,4.506,2.095,5.01,4.625c0.15,0.76,0.195,1.541,0.291,2.313
			c0,2.574,0,5.148,0,7.727c-0.063,0.598-0.117,1.191-0.188,1.789c-0.316,2.599-2.092,4.551-4.646,5.06
			C21.412,26.854,20.632,26.9,19.863,26.994z M7.055,15.958H7.053c0,1.563-0.031,3.129,0.006,4.69
			c0.063,2.623,1.654,4.244,4.265,4.277c3.127,0.043,6.254,0.047,9.383-0.002c2.559-0.035,4.186-1.65,4.227-4.213
			c0.049-3.156,0.049-6.32-0.002-9.479c-0.041-2.507-1.658-4.132-4.16-4.173c-3.176-0.054-6.352-0.052-9.526-0.001
			C8.736,7.1,7.139,8.717,7.065,11.219C7.018,12.799,7.055,14.379,7.055,15.958z"/>
		<path fill="#68BED5" d="M10.365,15.968c0.007-3.13,2.525-5.62,5.669-5.609c3.129,0.012,5.604,2.527,5.596,5.682
			c-0.01,3.102-2.522,5.59-5.643,5.585C12.854,21.623,10.357,19.111,10.365,15.968z M15.996,19.66c2.037,0,3.668-1.624,3.67-3.652
			c0.004-2.04-1.613-3.676-3.637-3.682c-2.068-0.005-3.697,1.618-3.697,3.676C12.334,18.033,13.963,19.659,15.996,19.66z"/>
		<path fill="#68BED5" d="M21.861,8.804c0.703-0.005,1.313,0.591,1.326,1.296c0.014,0.719-0.617,1.353-1.332,1.342
			c-0.699-0.01-1.31-0.628-1.31-1.324C20.55,9.419,21.162,8.809,21.861,8.804z"/>
	</g>
</g>
</svg>
